<svg width="121" height="73" viewBox="0 0 121 73" fill="none" xmlns="http://www.w3.org/2000/svg">
<path d="M117.272 57.592C117.272 58.488 115.267 58.936 111.256 58.936C107.245 58.936 105.069 58.616 104.728 57.976L94.04 38.008V57.912C94.04 58.68 92.056 59.064 88.088 59.064C84.1627 59.064 82.2 58.68 82.2 57.912V15.096C82.2 14.456 83.8853 14.136 87.256 14.136C88.5787 14.136 90.1147 14.264 91.864 14.52C93.656 14.7333 94.744 15.16 95.128 15.8L105.368 35.512V15.416C105.368 14.6053 107.352 14.2 111.32 14.2C115.288 14.2 117.272 14.6053 117.272 15.416V57.592Z" fill="#4B4B4B"/>
<path d="M104.728 57.976L107.375 56.5642L107.373 56.5603L104.728 57.976ZM94.04 38.008L96.6849 36.5923C96.0357 35.3793 94.6447 34.7634 93.3102 35.0981C91.9758 35.4328 91.04 36.6322 91.04 38.008H94.04ZM91.864 14.52L91.4296 17.4884C91.4561 17.4923 91.4827 17.4958 91.5094 17.499L91.864 14.52ZM95.128 15.8L97.7902 14.417C97.762 14.3626 97.732 14.3091 97.7005 14.2565L95.128 15.8ZM105.368 35.512L102.706 36.895C103.343 38.122 104.737 38.7544 106.08 38.4263C107.423 38.0983 108.368 36.8947 108.368 35.512H105.368ZM114.272 57.592C114.272 56.4852 114.964 55.8637 115.226 55.6879C115.427 55.553 115.471 55.5924 115.114 55.6722C114.443 55.822 113.207 55.936 111.256 55.936V61.936C113.315 61.936 115.088 61.826 116.422 61.5278C117.068 61.3836 117.864 61.143 118.566 60.6721C119.33 60.1603 120.272 59.1468 120.272 57.592H114.272ZM111.256 55.936C109.299 55.936 107.924 55.856 107.052 55.7279C106.843 55.6972 106.684 55.6665 106.567 55.6392C106.446 55.6111 106.396 55.5925 106.397 55.5929C106.399 55.5938 106.424 55.6034 106.466 55.6245C106.507 55.6453 106.577 55.6832 106.662 55.7433C106.821 55.8547 107.132 56.1088 107.375 56.5642L102.081 59.3878C102.698 60.5446 103.78 61.0163 104.259 61.1991C104.865 61.4302 105.537 61.5695 106.18 61.6641C107.484 61.856 109.203 61.936 111.256 61.936V55.936ZM107.373 56.5603L96.6849 36.5923L91.3951 39.4237L102.083 59.3917L107.373 56.5603ZM91.04 38.008V57.912H97.04V38.008H91.04ZM91.04 57.912C91.04 56.5638 91.9815 55.9262 92.1616 55.8216C92.3447 55.7153 92.3594 55.7576 91.9819 55.8307C91.2807 55.9664 90.0262 56.064 88.088 56.064V62.064C90.1178 62.064 91.8393 61.9696 93.1221 61.7213C93.7366 61.6024 94.4953 61.4047 95.1744 61.0104C95.8505 60.6178 97.04 59.6442 97.04 57.912H91.04ZM88.088 56.064C86.1717 56.064 84.9356 55.9664 84.248 55.8318C83.8777 55.7594 83.899 55.7186 84.0866 55.8288C84.2775 55.9408 85.2 56.5801 85.2 57.912H79.2C79.2 59.6279 80.3679 60.6032 81.0494 61.0032C81.7277 61.4014 82.485 61.6006 83.096 61.7202C84.371 61.9696 86.079 62.064 88.088 62.064V56.064ZM85.2 57.912V15.096H79.2V57.912H85.2ZM85.2 15.096C85.2 16.5052 84.2031 17.1676 84.0009 17.2828C83.7838 17.4064 83.7177 17.3814 84.0236 17.3233C84.5806 17.2176 85.6155 17.136 87.256 17.136V11.136C85.5259 11.136 84.0327 11.2144 82.9044 11.4287C82.3676 11.5306 81.6696 11.7056 81.0311 12.0692C80.4076 12.4244 79.2 13.3668 79.2 15.096H85.2ZM87.256 17.136C88.3943 17.136 89.7795 17.2469 91.4296 17.4884L92.2984 11.5516C90.4498 11.2811 88.7631 11.136 87.256 11.136V17.136ZM91.5094 17.499C92.2732 17.5899 92.7147 17.709 92.9287 17.7929C93.0281 17.8319 93.0178 17.8401 92.9477 17.7892C92.8736 17.7356 92.7078 17.5973 92.5555 17.3435L97.7005 14.2565C97.0226 13.1268 95.953 12.534 95.1193 12.2071C94.2453 11.8644 93.2468 11.6634 92.2186 11.541L91.5094 17.499ZM92.4658 17.183L102.706 36.895L108.03 34.129L97.7902 14.417L92.4658 17.183ZM108.368 35.512V15.416H102.368V35.512H108.368ZM108.368 15.416C108.368 16.6729 107.526 17.3082 107.308 17.4418C107.116 17.5595 107.088 17.5185 107.457 17.4433C108.143 17.3031 109.385 17.2 111.32 17.2V11.2C109.287 11.2 107.553 11.2996 106.256 11.5647C105.632 11.6921 104.86 11.9045 104.172 12.3262C103.458 12.7638 102.368 13.7538 102.368 15.416H108.368ZM111.32 17.2C113.255 17.2 114.497 17.3031 115.184 17.4433C115.552 17.5185 115.524 17.5595 115.332 17.4418C115.114 17.3082 114.272 16.6729 114.272 15.416H120.272C120.272 13.7538 119.182 12.7638 118.468 12.3262C117.78 11.9045 117.008 11.6921 116.385 11.5647C115.087 11.2996 113.353 11.2 111.32 11.2V17.2ZM114.272 15.416V57.592H120.272V15.416H114.272Z" fill="white"/>
<path d="M104.728 57.976L107.375 56.5642L107.373 56.5603L104.728 57.976ZM94.04 38.008L96.6849 36.5923C96.0357 35.3793 94.6447 34.7634 93.3102 35.0981C91.9758 35.4328 91.04 36.6322 91.04 38.008H94.04ZM91.864 14.52L91.4296 17.4884C91.4561 17.4923 91.4827 17.4958 91.5094 17.499L91.864 14.52ZM95.128 15.8L97.7902 14.417C97.762 14.3626 97.732 14.3091 97.7005 14.2565L95.128 15.8ZM105.368 35.512L102.706 36.895C103.343 38.122 104.737 38.7544 106.08 38.4263C107.423 38.0983 108.368 36.8947 108.368 35.512H105.368ZM114.272 57.592C114.272 56.4852 114.964 55.8637 115.226 55.6879C115.427 55.553 115.471 55.5924 115.114 55.6722C114.443 55.822 113.207 55.936 111.256 55.936V61.936C113.315 61.936 115.088 61.826 116.422 61.5278C117.068 61.3836 117.864 61.143 118.566 60.6721C119.33 60.1603 120.272 59.1468 120.272 57.592H114.272ZM111.256 55.936C109.299 55.936 107.924 55.856 107.052 55.7279C106.843 55.6972 106.684 55.6665 106.567 55.6392C106.446 55.6111 106.396 55.5925 106.397 55.5929C106.399 55.5938 106.424 55.6034 106.466 55.6245C106.507 55.6453 106.577 55.6832 106.662 55.7433C106.821 55.8547 107.132 56.1088 107.375 56.5642L102.081 59.3878C102.698 60.5446 103.78 61.0163 104.259 61.1991C104.865 61.4302 105.537 61.5695 106.18 61.6641C107.484 61.856 109.203 61.936 111.256 61.936V55.936ZM107.373 56.5603L96.6849 36.5923L91.3951 39.4237L102.083 59.3917L107.373 56.5603ZM91.04 38.008V57.912H97.04V38.008H91.04ZM91.04 57.912C91.04 56.5638 91.9815 55.9262 92.1616 55.8216C92.3447 55.7153 92.3594 55.7576 91.9819 55.8307C91.2807 55.9664 90.0262 56.064 88.088 56.064V62.064C90.1178 62.064 91.8393 61.9696 93.1221 61.7213C93.7366 61.6024 94.4953 61.4047 95.1744 61.0104C95.8505 60.6178 97.04 59.6442 97.04 57.912H91.04ZM88.088 56.064C86.1717 56.064 84.9356 55.9664 84.248 55.8318C83.8777 55.7594 83.899 55.7186 84.0866 55.8288C84.2775 55.9408 85.2 56.5801 85.2 57.912H79.2C79.2 59.6279 80.3679 60.6032 81.0494 61.0032C81.7277 61.4014 82.485 61.6006 83.096 61.7202C84.371 61.9696 86.079 62.064 88.088 62.064V56.064ZM85.2 57.912V15.096H79.2V57.912H85.2ZM85.2 15.096C85.2 16.5052 84.2031 17.1676 84.0009 17.2828C83.7838 17.4064 83.7177 17.3814 84.0236 17.3233C84.5806 17.2176 85.6155 17.136 87.256 17.136V11.136C85.5259 11.136 84.0327 11.2144 82.9044 11.4287C82.3676 11.5306 81.6696 11.7056 81.0311 12.0692C80.4076 12.4244 79.2 13.3668 79.2 15.096H85.2ZM87.256 17.136C88.3943 17.136 89.7795 17.2469 91.4296 17.4884L92.2984 11.5516C90.4498 11.2811 88.7631 11.136 87.256 11.136V17.136ZM91.5094 17.499C92.2732 17.5899 92.7147 17.709 92.9287 17.7929C93.0281 17.8319 93.0178 17.8401 92.9477 17.7892C92.8736 17.7356 92.7078 17.5973 92.5555 17.3435L97.7005 14.2565C97.0226 13.1268 95.953 12.534 95.1193 12.2071C94.2453 11.8644 93.2468 11.6634 92.2186 11.541L91.5094 17.499ZM92.4658 17.183L102.706 36.895L108.03 34.129L97.7902 14.417L92.4658 17.183ZM108.368 35.512V15.416H102.368V35.512H108.368ZM108.368 15.416C108.368 16.6729 107.526 17.3082 107.308 17.4418C107.116 17.5595 107.088 17.5185 107.457 17.4433C108.143 17.3031 109.385 17.2 111.32 17.2V11.2C109.287 11.2 107.553 11.2996 106.256 11.5647C105.632 11.6921 104.86 11.9045 104.172 12.3262C103.458 12.7638 102.368 13.7538 102.368 15.416H108.368ZM111.32 17.2C113.255 17.2 114.497 17.3031 115.184 17.4433C115.552 17.5185 115.524 17.5595 115.332 17.4418C115.114 17.3082 114.272 16.6729 114.272 15.416H120.272C120.272 13.7538 119.182 12.7638 118.468 12.3262C117.78 11.9045 117.008 11.6921 116.385 11.5647C115.087 11.2996 113.353 11.2 111.32 11.2V17.2ZM114.272 15.416V57.592H120.272V15.416H114.272Z" fill="black" fill-opacity="0.2"/>
<path d="M68.768 59.128C64.8853 59.128 62.944 58.7013 62.944 57.848V16.376C62.944 14.9253 63.6053 14.2 64.928 14.2H76.192C82.5067 14.2 87.0507 15.5013 89.824 18.104C92.64 20.7067 94.048 24.4827 94.048 29.432C94.048 33.528 92.7253 37.2827 90.08 40.696C88.7573 42.4027 86.816 43.768 84.256 44.792C81.696 45.816 78.7093 46.328 75.296 46.328V57.784C75.296 58.296 74.4853 58.6587 72.864 58.872C71.2853 59.0427 69.92 59.128 68.768 59.128ZM75.296 25.336V35.448H76.128C77.6213 35.448 78.88 34.9787 79.904 34.04C80.928 33.1013 81.44 31.7787 81.44 30.072C81.44 28.3653 81.0773 27.1493 80.352 26.424C79.6693 25.6987 78.432 25.336 76.64 25.336H75.296Z" fill="#4B4B4B"/>
<path d="M89.824 18.104L87.7711 20.2916C87.7766 20.2968 87.7822 20.302 87.7878 20.3071L89.824 18.104ZM90.08 40.696L92.4512 42.5337L92.4512 42.5337L90.08 40.696ZM84.256 44.792L83.1418 42.0066L83.1418 42.0066L84.256 44.792ZM75.296 46.328V43.328C73.6391 43.328 72.296 44.6711 72.296 46.328H75.296ZM72.864 58.872L73.1864 61.8546C73.2094 61.8521 73.2324 61.8494 73.2554 61.8464L72.864 58.872ZM75.296 25.336V22.336C73.6391 22.336 72.296 23.6791 72.296 25.336H75.296ZM75.296 35.448H72.296C72.296 37.1049 73.6391 38.448 75.296 38.448V35.448ZM79.904 34.04L81.9312 36.2515L81.9312 36.2515L79.904 34.04ZM80.352 26.424L78.1674 28.4801C78.1882 28.5022 78.2093 28.5239 78.2307 28.5453L80.352 26.424ZM68.768 56.128C66.8795 56.128 65.6877 56.0194 65.044 55.8779C64.6998 55.8023 64.752 55.7667 64.9594 55.9034C65.2224 56.0769 65.944 56.7074 65.944 57.848H59.944C59.944 59.4152 60.9082 60.4191 61.6566 60.9126C62.3493 61.3693 63.1295 61.6004 63.756 61.7381C65.0537 62.0233 66.7738 62.128 68.768 62.128V56.128ZM65.944 57.848V16.376H59.944V57.848H65.944ZM65.944 16.376C65.944 16.048 66.0247 16.3619 65.6569 16.7653C65.4721 16.9679 65.2607 17.0912 65.0901 17.1536C64.9366 17.2097 64.8637 17.2 64.928 17.2V11.2C63.7292 11.2 62.3002 11.5415 61.2231 12.7227C60.194 13.8515 59.944 15.2533 59.944 16.376H65.944ZM64.928 17.2H76.192V11.2H64.928V17.2ZM76.192 17.2C82.2165 17.2 85.8226 18.463 87.7711 20.2916L91.8769 15.9164C88.2788 12.5397 82.7968 11.2 76.192 11.2V17.2ZM87.7878 20.3071C89.8229 22.1881 91.048 25.0619 91.048 29.432H97.048C97.048 23.9034 95.4571 19.2253 91.8602 15.9009L87.7878 20.3071ZM91.048 29.432C91.048 32.8249 89.9702 35.9402 87.7088 38.8583L92.4512 42.5337C95.4804 38.6251 97.048 34.2311 97.048 29.432H91.048ZM87.7088 38.8583C86.7921 40.0411 85.3409 41.127 83.1418 42.0066L85.3702 47.5774C88.2911 46.409 90.7226 44.7643 92.4512 42.5337L87.7088 38.8583ZM83.1418 42.0066C81.0095 42.8595 78.4155 43.328 75.296 43.328V49.328C79.0032 49.328 82.3825 48.7725 85.3702 47.5774L83.1418 42.0066ZM72.296 46.328V57.784H78.296V46.328H72.296ZM72.296 57.784C72.296 57.0325 72.6213 56.4485 72.9437 56.1007C73.2174 55.8054 73.4608 55.7025 73.4629 55.7015C73.4856 55.6914 73.4251 55.7201 73.2366 55.7648C73.0564 55.8074 72.8059 55.8538 72.4726 55.8976L73.2554 61.8464C74.1552 61.728 75.107 61.5391 75.9131 61.1785C76.5524 60.8924 78.296 59.9315 78.296 57.784H72.296ZM72.5416 55.8894C71.0331 56.0525 69.7807 56.128 68.768 56.128V62.128C70.0593 62.128 71.5375 62.0329 73.1864 61.8546L72.5416 55.8894ZM72.296 25.336V35.448H78.296V25.336H72.296ZM75.296 38.448H76.128V32.448H75.296V38.448ZM76.128 38.448C78.3105 38.448 80.3102 37.7374 81.9312 36.2515L77.8768 31.8285C77.4498 32.22 76.9322 32.448 76.128 32.448V38.448ZM81.9312 36.2515C83.7128 34.6183 84.44 32.4125 84.44 30.072H78.44C78.44 31.1448 78.1432 31.5844 77.8768 31.8285L81.9312 36.2515ZM84.44 30.072C84.44 28.0694 84.0365 25.8659 82.4733 24.3027L78.2307 28.5453C78.1671 28.4817 78.2209 28.4952 78.2931 28.7374C78.3685 28.9901 78.44 29.4159 78.44 30.072H84.44ZM82.5366 24.3679C80.9734 22.707 78.6499 22.336 76.64 22.336V28.336C77.3527 28.336 77.807 28.4103 78.0682 28.4869C78.3222 28.5613 78.2845 28.6045 78.1674 28.4801L82.5366 24.3679ZM76.64 22.336H75.296V28.336H76.64V22.336Z" fill="white"/>
<path d="M89.824 18.104L87.7711 20.2916C87.7766 20.2968 87.7822 20.302 87.7878 20.3071L89.824 18.104ZM90.08 40.696L92.4512 42.5337L92.4512 42.5337L90.08 40.696ZM84.256 44.792L83.1418 42.0066L83.1418 42.0066L84.256 44.792ZM75.296 46.328V43.328C73.6391 43.328 72.296 44.6711 72.296 46.328H75.296ZM72.864 58.872L73.1864 61.8546C73.2094 61.8521 73.2324 61.8494 73.2554 61.8464L72.864 58.872ZM75.296 25.336V22.336C73.6391 22.336 72.296 23.6791 72.296 25.336H75.296ZM75.296 35.448H72.296C72.296 37.1049 73.6391 38.448 75.296 38.448V35.448ZM79.904 34.04L81.9312 36.2515L81.9312 36.2515L79.904 34.04ZM80.352 26.424L78.1674 28.4801C78.1882 28.5022 78.2093 28.5239 78.2307 28.5453L80.352 26.424ZM68.768 56.128C66.8795 56.128 65.6877 56.0194 65.044 55.8779C64.6998 55.8023 64.752 55.7667 64.9594 55.9034C65.2224 56.0769 65.944 56.7074 65.944 57.848H59.944C59.944 59.4152 60.9082 60.4191 61.6566 60.9126C62.3493 61.3693 63.1295 61.6004 63.756 61.7381C65.0537 62.0233 66.7738 62.128 68.768 62.128V56.128ZM65.944 57.848V16.376H59.944V57.848H65.944ZM65.944 16.376C65.944 16.048 66.0247 16.3619 65.6569 16.7653C65.4721 16.9679 65.2607 17.0912 65.0901 17.1536C64.9366 17.2097 64.8637 17.2 64.928 17.2V11.2C63.7292 11.2 62.3002 11.5415 61.2231 12.7227C60.194 13.8515 59.944 15.2533 59.944 16.376H65.944ZM64.928 17.2H76.192V11.2H64.928V17.2ZM76.192 17.2C82.2165 17.2 85.8226 18.463 87.7711 20.2916L91.8769 15.9164C88.2788 12.5397 82.7968 11.2 76.192 11.2V17.2ZM87.7878 20.3071C89.8229 22.1881 91.048 25.0619 91.048 29.432H97.048C97.048 23.9034 95.4571 19.2253 91.8602 15.9009L87.7878 20.3071ZM91.048 29.432C91.048 32.8249 89.9702 35.9402 87.7088 38.8583L92.4512 42.5337C95.4804 38.6251 97.048 34.2311 97.048 29.432H91.048ZM87.7088 38.8583C86.7921 40.0411 85.3409 41.127 83.1418 42.0066L85.3702 47.5774C88.2911 46.409 90.7226 44.7643 92.4512 42.5337L87.7088 38.8583ZM83.1418 42.0066C81.0095 42.8595 78.4155 43.328 75.296 43.328V49.328C79.0032 49.328 82.3825 48.7725 85.3702 47.5774L83.1418 42.0066ZM72.296 46.328V57.784H78.296V46.328H72.296ZM72.296 57.784C72.296 57.0325 72.6213 56.4485 72.9437 56.1007C73.2174 55.8054 73.4608 55.7025 73.4629 55.7015C73.4856 55.6914 73.4251 55.7201 73.2366 55.7648C73.0564 55.8074 72.8059 55.8538 72.4726 55.8976L73.2554 61.8464C74.1552 61.728 75.107 61.5391 75.9131 61.1785C76.5524 60.8924 78.296 59.9315 78.296 57.784H72.296ZM72.5416 55.8894C71.0331 56.0525 69.7807 56.128 68.768 56.128V62.128C70.0593 62.128 71.5375 62.0329 73.1864 61.8546L72.5416 55.8894ZM72.296 25.336V35.448H78.296V25.336H72.296ZM75.296 38.448H76.128V32.448H75.296V38.448ZM76.128 38.448C78.3105 38.448 80.3102 37.7374 81.9312 36.2515L77.8768 31.8285C77.4498 32.22 76.9322 32.448 76.128 32.448V38.448ZM81.9312 36.2515C83.7128 34.6183 84.44 32.4125 84.44 30.072H78.44C78.44 31.1448 78.1432 31.5844 77.8768 31.8285L81.9312 36.2515ZM84.44 30.072C84.44 28.0694 84.0365 25.8659 82.4733 24.3027L78.2307 28.5453C78.1671 28.4817 78.2209 28.4952 78.2931 28.7374C78.3685 28.9901 78.44 29.4159 78.44 30.072H84.44ZM82.5366 24.3679C80.9734 22.707 78.6499 22.336 76.64 22.336V28.336C77.3527 28.336 77.807 28.4103 78.0682 28.4869C78.3222 28.5613 78.2845 28.6045 78.1674 28.4801L82.5366 24.3679ZM76.64 22.336H75.296V28.336H76.64V22.336Z" fill="black" fill-opacity="0.2"/>
<path d="M52.472 16.312C53.0267 14.8187 55.7573 14.072 60.664 14.072C61.9013 14.072 63.352 14.1573 65.016 14.328C66.7227 14.4987 67.512 14.712 67.384 14.968L54.072 41.72V57.336C54.072 58.0613 52.8987 58.5733 50.552 58.872C49.3573 59.0427 48.184 59.128 47.032 59.128C45.88 59.128 44.728 59.064 43.576 58.936C41.2293 58.6373 40.056 58.104 40.056 57.336V42.104L26.296 15.096C26.1253 14.84 27 14.6053 28.92 14.392C30.84 14.136 32.4613 14.008 33.784 14.008C39.032 14.008 41.912 14.776 42.424 16.312L47.096 29.368L52.472 16.312Z" fill="#4B4B4B"/>
<path d="M52.472 16.312L55.246 17.4542C55.2594 17.4219 55.2721 17.3893 55.2843 17.3566L52.472 16.312ZM65.016 14.328L64.7099 17.3124L64.7175 17.3131L65.016 14.328ZM67.384 14.968L64.7007 13.6264L64.6982 13.6315L67.384 14.968ZM54.072 41.72L51.3862 40.3835C51.1795 40.7987 51.072 41.2562 51.072 41.72H54.072ZM50.552 58.872L50.1732 55.896C50.1581 55.8979 50.1429 55.9 50.1277 55.9022L50.552 58.872ZM43.576 58.936L43.1972 61.912C43.213 61.914 43.2289 61.9159 43.2447 61.9177L43.576 58.936ZM40.056 42.104H43.056C43.056 41.6306 42.944 41.1639 42.7291 40.7421L40.056 42.104ZM26.296 15.096L28.9691 13.7341C28.916 13.63 28.857 13.5291 28.7921 13.4319L26.296 15.096ZM28.92 14.392L29.2513 17.3736C29.2731 17.3712 29.2948 17.3686 29.3165 17.3657L28.92 14.392ZM42.424 16.312L39.578 17.2607C39.5849 17.2815 39.592 17.3021 39.5994 17.3228L42.424 16.312ZM47.096 29.368L44.2714 30.3788C44.6896 31.5475 45.7845 32.338 47.0256 32.3672C48.2666 32.3963 49.3974 31.6581 49.87 30.5102L47.096 29.368ZM55.2843 17.3566C55.0336 18.0315 54.5919 17.8362 55.7273 17.5258C56.7134 17.2561 58.3132 17.072 60.664 17.072V11.072C58.1081 11.072 55.8892 11.2612 54.1447 11.7382C52.5494 12.1745 50.4651 13.0992 49.6597 15.2674L55.2843 17.3566ZM60.664 17.072C61.7707 17.072 63.1148 17.1487 64.7099 17.3123L65.3221 11.3437C63.5892 11.1659 62.0319 11.072 60.664 11.072V17.072ZM64.7175 17.3131C65.5443 17.3958 65.9623 17.4734 66.1053 17.5121C66.2359 17.5474 65.9434 17.4942 65.5718 17.2305C65.3772 17.0925 64.9051 16.7186 64.6162 16.0193C64.269 15.1787 64.3626 14.3025 64.7007 13.6264L70.0673 16.3096C70.4374 15.5695 70.5343 14.6306 70.1618 13.7287C69.8476 12.968 69.3214 12.5342 69.0442 12.3375C68.5073 11.9564 67.9348 11.7913 67.6707 11.7199C67.0244 11.5452 66.1943 11.4309 65.3145 11.3429L64.7175 17.3131ZM64.6982 13.6315L51.3862 40.3835L56.7578 43.0565L70.0698 16.3045L64.6982 13.6315ZM51.072 41.72V57.336H57.072V41.72H51.072ZM51.072 57.336C51.072 57.009 51.1408 56.6881 51.2675 56.3978C51.3908 56.1155 51.5472 55.9107 51.6751 55.7757C51.9077 55.5305 52.0845 55.4741 51.9922 55.5144C51.9219 55.5451 51.7454 55.6093 51.4187 55.6845C51.1003 55.7579 50.6893 55.8303 50.1732 55.896L50.9308 61.848C52.1907 61.6876 53.4092 61.4424 54.3918 61.0136C55.1837 60.6681 57.072 59.6268 57.072 57.336H51.072ZM50.1277 55.9022C49.067 56.0537 48.0355 56.128 47.032 56.128V62.128C48.3325 62.128 49.6477 62.0316 50.9763 61.8418L50.1277 55.9022ZM47.032 56.128C45.9914 56.128 44.95 56.0702 43.9073 55.9543L43.2447 61.9177C44.506 62.0578 45.7686 62.128 47.032 62.128V56.128ZM43.9548 55.96C43.4429 55.8949 43.0377 55.8221 42.7261 55.7484C42.4061 55.6728 42.2387 55.6087 42.1774 55.5809C42.0975 55.5446 42.2768 55.607 42.5041 55.8591C42.6281 55.9966 42.772 56.1975 42.8833 56.4666C42.997 56.7416 43.056 57.0388 43.056 57.336H37.056C37.056 59.5658 38.8216 60.6463 39.6946 61.0431C40.6946 61.4977 41.9305 61.7508 43.1972 61.912L43.9548 55.96ZM43.056 57.336V42.104H37.056V57.336H43.056ZM42.7291 40.7421L28.9691 13.7341L23.6229 16.4579L37.3829 43.4659L42.7291 40.7421ZM28.7921 13.4319C29.2062 14.0529 29.4679 15.0103 29.1021 16.0214C28.8093 16.831 28.2595 17.2437 28.0794 17.3692C27.7116 17.6255 27.43 17.6715 27.6014 17.6255C27.8053 17.5708 28.3128 17.4779 29.2513 17.3736L28.5887 11.4103C27.6072 11.5194 26.7174 11.6505 26.0466 11.8305C25.7807 11.9018 25.1924 12.0678 24.6486 12.4468C24.3805 12.6337 23.7754 13.1083 23.4599 13.9806C23.0715 15.0544 23.3432 16.0751 23.7999 16.7601L28.7921 13.4319ZM29.3165 17.3657C31.1594 17.12 32.6393 17.008 33.784 17.008V11.008C32.2833 11.008 30.5206 11.152 28.5235 11.4183L29.3165 17.3657ZM33.784 17.008C36.3127 17.008 38.0405 17.1983 39.107 17.4827C40.3652 17.8182 39.8341 18.029 39.578 17.2607L45.2701 15.3633C44.5019 13.0589 42.2748 12.1178 40.653 11.6853C38.8395 11.2017 36.5033 11.008 33.784 11.008V17.008ZM39.5994 17.3228L44.2714 30.3788L49.9206 28.3572L45.2486 15.3012L39.5994 17.3228ZM49.87 30.5102L55.246 17.4542L49.698 15.1697L44.322 28.2257L49.87 30.5102Z" fill="white"/>
<path d="M52.472 16.312L55.246 17.4542C55.2594 17.4219 55.2721 17.3893 55.2843 17.3566L52.472 16.312ZM65.016 14.328L64.7099 17.3124L64.7175 17.3131L65.016 14.328ZM67.384 14.968L64.7007 13.6264L64.6982 13.6315L67.384 14.968ZM54.072 41.72L51.3862 40.3835C51.1795 40.7987 51.072 41.2562 51.072 41.72H54.072ZM50.552 58.872L50.1732 55.896C50.1581 55.8979 50.1429 55.9 50.1277 55.9022L50.552 58.872ZM43.576 58.936L43.1972 61.912C43.213 61.914 43.2289 61.9159 43.2447 61.9177L43.576 58.936ZM40.056 42.104H43.056C43.056 41.6306 42.944 41.1639 42.7291 40.7421L40.056 42.104ZM26.296 15.096L28.9691 13.7341C28.916 13.63 28.857 13.5291 28.7921 13.4319L26.296 15.096ZM28.92 14.392L29.2513 17.3736C29.2731 17.3712 29.2948 17.3686 29.3165 17.3657L28.92 14.392ZM42.424 16.312L39.578 17.2607C39.5849 17.2815 39.592 17.3021 39.5994 17.3228L42.424 16.312ZM47.096 29.368L44.2714 30.3788C44.6896 31.5475 45.7845 32.338 47.0256 32.3672C48.2666 32.3963 49.3974 31.6581 49.87 30.5102L47.096 29.368ZM55.2843 17.3566C55.0336 18.0315 54.5919 17.8362 55.7273 17.5258C56.7134 17.2561 58.3132 17.072 60.664 17.072V11.072C58.1081 11.072 55.8892 11.2612 54.1447 11.7382C52.5494 12.1745 50.4651 13.0992 49.6597 15.2674L55.2843 17.3566ZM60.664 17.072C61.7707 17.072 63.1148 17.1487 64.7099 17.3123L65.3221 11.3437C63.5892 11.1659 62.0319 11.072 60.664 11.072V17.072ZM64.7175 17.3131C65.5443 17.3958 65.9623 17.4734 66.1053 17.5121C66.2359 17.5474 65.9434 17.4942 65.5718 17.2305C65.3772 17.0925 64.9051 16.7186 64.6162 16.0193C64.269 15.1787 64.3626 14.3025 64.7007 13.6264L70.0673 16.3096C70.4374 15.5695 70.5343 14.6306 70.1618 13.7287C69.8476 12.968 69.3214 12.5342 69.0442 12.3375C68.5073 11.9564 67.9348 11.7913 67.6707 11.7199C67.0244 11.5452 66.1943 11.4309 65.3145 11.3429L64.7175 17.3131ZM64.6982 13.6315L51.3862 40.3835L56.7578 43.0565L70.0698 16.3045L64.6982 13.6315ZM51.072 41.72V57.336H57.072V41.72H51.072ZM51.072 57.336C51.072 57.009 51.1408 56.6881 51.2675 56.3978C51.3908 56.1155 51.5472 55.9107 51.6751 55.7757C51.9077 55.5305 52.0845 55.4741 51.9922 55.5144C51.9219 55.5451 51.7454 55.6093 51.4187 55.6845C51.1003 55.7579 50.6893 55.8303 50.1732 55.896L50.9308 61.848C52.1907 61.6876 53.4092 61.4424 54.3918 61.0136C55.1837 60.6681 57.072 59.6268 57.072 57.336H51.072ZM50.1277 55.9022C49.067 56.0537 48.0355 56.128 47.032 56.128V62.128C48.3325 62.128 49.6477 62.0316 50.9763 61.8418L50.1277 55.9022ZM47.032 56.128C45.9914 56.128 44.95 56.0702 43.9073 55.9543L43.2447 61.9177C44.506 62.0578 45.7686 62.128 47.032 62.128V56.128ZM43.9548 55.96C43.4429 55.8949 43.0377 55.8221 42.7261 55.7484C42.4061 55.6728 42.2387 55.6087 42.1774 55.5809C42.0975 55.5446 42.2768 55.607 42.5041 55.8591C42.6281 55.9966 42.772 56.1975 42.8833 56.4666C42.997 56.7416 43.056 57.0388 43.056 57.336H37.056C37.056 59.5658 38.8216 60.6463 39.6946 61.0431C40.6946 61.4977 41.9305 61.7508 43.1972 61.912L43.9548 55.96ZM43.056 57.336V42.104H37.056V57.336H43.056ZM42.7291 40.7421L28.9691 13.7341L23.6229 16.4579L37.3829 43.4659L42.7291 40.7421ZM28.7921 13.4319C29.2062 14.0529 29.4679 15.0103 29.1021 16.0214C28.8093 16.831 28.2595 17.2437 28.0794 17.3692C27.7116 17.6255 27.43 17.6715 27.6014 17.6255C27.8053 17.5708 28.3128 17.4779 29.2513 17.3736L28.5887 11.4103C27.6072 11.5194 26.7174 11.6505 26.0466 11.8305C25.7807 11.9018 25.1924 12.0678 24.6486 12.4468C24.3805 12.6337 23.7754 13.1083 23.4599 13.9806C23.0715 15.0544 23.3432 16.0751 23.7999 16.7601L28.7921 13.4319ZM29.3165 17.3657C31.1594 17.12 32.6393 17.008 33.784 17.008V11.008C32.2833 11.008 30.5206 11.152 28.5235 11.4183L29.3165 17.3657ZM33.784 17.008C36.3127 17.008 38.0405 17.1983 39.107 17.4827C40.3652 17.8182 39.8341 18.029 39.578 17.2607L45.2701 15.3633C44.5019 13.0589 42.2748 12.1178 40.653 11.6853C38.8395 11.2017 36.5033 11.008 33.784 11.008V17.008ZM39.5994 17.3228L44.2714 30.3788L49.9206 28.3572L45.2486 15.3012L39.5994 17.3228ZM49.87 30.5102L55.246 17.4542L49.698 15.1697L44.322 28.2257L49.87 30.5102Z" fill="black" fill-opacity="0.2"/>
<path d="M16 58.104C16 58.744 13.9947 59.064 9.984 59.064L6.4 58.872C4.26667 58.7013 3.2 58.4027 3.2 57.976V15.032C3.2 14.3067 5.33333 13.944 9.6 13.944C13.8667 13.944 16 14.3067 16 15.032V31.416L23.808 15.032C24.1067 14.4347 25.8133 14.136 28.928 14.136C34.6027 14.136 37.5893 14.6267 37.888 15.608C37.888 15.6933 37.8667 15.7787 37.824 15.864L26.688 35.96L39.616 53.816C39.616 53.9013 39.2107 54.264 38.4 54.904C36.4373 56.6107 34.1333 57.9547 31.488 58.936C30.6773 59.2347 29.8667 59.384 29.056 59.384L27.52 59.256C26.1547 58.9147 25.088 58.04 24.32 56.632L17.024 42.68H16V58.104Z" fill="#4B4B4B"/>
<path d="M9.984 59.064L9.82352 62.0597C9.87696 62.0626 9.93048 62.064 9.984 62.064L9.984 59.064ZM6.4 58.872L6.16076 61.8624C6.18699 61.8645 6.21324 61.8663 6.23952 61.8677L6.4 58.872ZM16 31.416H13C13 32.8179 13.971 34.033 15.3384 34.3421C16.7058 34.6513 18.1051 33.9722 18.7082 32.7066L16 31.416ZM23.808 15.032L21.1247 13.6904C21.1163 13.7073 21.108 13.7243 21.0998 13.7414L23.808 15.032ZM37.888 15.608H40.888C40.888 15.312 40.8442 15.0177 40.758 14.7345L37.888 15.608ZM37.824 15.864L40.448 17.3181C40.4686 17.281 40.4883 17.2435 40.5073 17.2056L37.824 15.864ZM26.688 35.96L24.064 34.5059C23.4998 35.524 23.5754 36.7765 24.258 37.7193L26.688 35.96ZM39.616 53.816H42.616C42.616 53.1842 42.4165 52.5685 42.046 52.0567L39.616 53.816ZM38.4 54.904L36.5411 52.5494C36.5038 52.5788 36.4673 52.609 36.4315 52.6402L38.4 54.904ZM31.488 58.936L32.5251 61.751L32.5314 61.7487L31.488 58.936ZM29.056 59.384L28.8069 62.3736C28.8897 62.3805 28.9728 62.384 29.056 62.384L29.056 59.384ZM27.52 59.256L26.7924 62.1664C26.9495 62.2057 27.1095 62.2322 27.2709 62.2456L27.52 59.256ZM24.32 56.632L21.6616 58.0222C21.6697 58.0377 21.6779 58.0532 21.6863 58.0686L24.32 56.632ZM17.024 42.68L19.6824 41.2898C19.165 40.3002 18.1407 39.68 17.024 39.68V42.68ZM16 42.68V39.68C14.3431 39.68 13 41.0231 13 42.68H16ZM13 58.104C13 57.3196 13.332 56.7065 13.6708 56.328C13.9667 55.9975 14.2528 55.8544 14.3286 55.8181C14.4704 55.7502 14.4335 55.796 14.0233 55.8615C13.263 55.9828 11.9523 56.064 9.984 56.064V62.064C12.0264 62.064 13.7237 61.9852 14.9687 61.7865C15.5612 61.692 16.2763 61.5378 16.9194 61.2299C17.4033 60.9982 19 60.1038 19 58.104H13ZM10.1445 56.0683L6.56048 55.8763L6.23952 61.8677L9.82352 62.0597L10.1445 56.0683ZM6.63924 55.8816C5.62236 55.8002 5.05585 55.7003 4.80889 55.6311C4.66451 55.5907 4.82612 55.6139 5.08693 55.7912C5.33307 55.9586 6.2 56.6535 6.2 57.976H0.2C0.2 59.5119 1.20026 60.4041 1.71307 60.7528C2.24054 61.1115 2.80215 61.3 3.19111 61.4089C4.01082 61.6384 5.04431 61.7731 6.16076 61.8624L6.63924 55.8816ZM6.2 57.976V15.032H0.2V57.976H6.2ZM6.2 15.032C6.2 16.5908 5.00363 17.2078 4.96298 17.2285C4.82352 17.2996 4.86871 17.2474 5.30279 17.1736C6.11202 17.036 7.50632 16.944 9.6 16.944V10.944C7.42701 10.944 5.62131 11.0333 4.29721 11.2584C3.66462 11.366 2.90981 11.5404 2.23702 11.8835C1.66303 12.1762 0.2 13.1105 0.2 15.032H6.2ZM9.6 16.944C11.6937 16.944 13.088 17.036 13.8972 17.1736C14.3313 17.2474 14.3765 17.2996 14.237 17.2285C14.1964 17.2078 13 16.5908 13 15.032H19C19 13.1105 17.537 12.1762 16.963 11.8835C16.2902 11.5404 15.5354 11.366 14.9028 11.2584C13.5787 11.0333 11.773 10.944 9.6 10.944V16.944ZM13 15.032V31.416H19V15.032H13ZM18.7082 32.7066L26.5162 16.3226L21.0998 13.7414L13.2918 30.1254L18.7082 32.7066ZM26.4913 16.3736C26.1108 17.1346 25.5249 17.3768 25.5198 17.379C25.4539 17.4085 25.5233 17.3686 25.8291 17.3151C26.4278 17.2103 27.4305 17.136 28.928 17.136V11.136C27.3109 11.136 25.9029 11.211 24.7949 11.4049C24.2474 11.5007 23.6395 11.6475 23.0722 11.901C22.5658 12.1272 21.6546 12.6307 21.1247 13.6904L26.4913 16.3736ZM28.928 17.136C31.7172 17.136 33.6884 17.2591 34.9377 17.4643C35.577 17.5694 35.8649 17.6711 35.9333 17.7018C36.1164 17.7838 35.3326 17.5151 35.018 16.4815L40.758 14.7345C40.2941 13.2102 39.0249 12.5122 38.3867 12.2262C37.6338 11.8889 36.7643 11.684 35.9103 11.5437C34.1729 11.2582 31.8135 11.136 28.928 11.136V17.136ZM34.888 15.608C34.888 15.175 35 14.8039 35.1407 14.5224L40.5073 17.2056C40.7334 16.7534 40.888 16.2116 40.888 15.608H34.888ZM35.2 14.4099L24.064 34.5059L29.312 37.4141L40.448 17.3181L35.2 14.4099ZM24.258 37.7193L37.186 55.5753L42.046 52.0567L29.118 34.2007L24.258 37.7193ZM36.616 53.816C36.616 53.2664 36.7686 52.8551 36.8475 52.6683C36.937 52.4564 37.0325 52.3011 37.0876 52.2169C37.1964 52.0509 37.2929 51.9441 37.3154 51.9193C37.3702 51.8586 37.3858 51.8499 37.3116 51.9163C37.1789 52.035 36.9327 52.2402 36.5411 52.5494L40.2589 57.2586C40.678 56.9278 41.0397 56.6317 41.3124 56.3877C41.4409 56.2728 41.6084 56.1174 41.7646 55.9447C41.8378 55.8639 41.9723 55.7098 42.1064 55.5051C42.1432 55.4489 42.616 54.7832 42.616 53.816H36.616ZM36.4315 52.6402C34.7639 54.0903 32.7798 55.257 30.4446 56.1233L32.5314 61.7487C35.4868 60.6523 38.1108 59.1311 40.3685 57.1678L36.4315 52.6402ZM30.4509 56.121C29.9503 56.3054 29.4901 56.384 29.056 56.384V62.384C30.2433 62.384 31.4043 62.1639 32.5251 61.751L30.4509 56.121ZM29.3051 56.3944L27.7691 56.2664L27.2709 62.2456L28.8069 62.3736L29.3051 56.3944ZM28.2476 56.3456C27.8129 56.2369 27.382 55.9806 26.9537 55.1954L21.6863 58.0686C22.794 60.0994 24.4964 61.5924 26.7924 62.1664L28.2476 56.3456ZM26.9785 55.2418L19.6824 41.2898L14.3656 44.0702L21.6616 58.0222L26.9785 55.2418ZM17.024 39.68H16V45.68H17.024V39.68ZM13 42.68V58.104H19V42.68H13Z" fill="white"/>
<path d="M9.984 59.064L9.82352 62.0597C9.87696 62.0626 9.93048 62.064 9.984 62.064L9.984 59.064ZM6.4 58.872L6.16076 61.8624C6.18699 61.8645 6.21324 61.8663 6.23952 61.8677L6.4 58.872ZM16 31.416H13C13 32.8179 13.971 34.033 15.3384 34.3421C16.7058 34.6513 18.1051 33.9722 18.7082 32.7066L16 31.416ZM23.808 15.032L21.1247 13.6904C21.1163 13.7073 21.108 13.7243 21.0998 13.7414L23.808 15.032ZM37.888 15.608H40.888C40.888 15.312 40.8442 15.0177 40.758 14.7345L37.888 15.608ZM37.824 15.864L40.448 17.3181C40.4686 17.281 40.4883 17.2435 40.5073 17.2056L37.824 15.864ZM26.688 35.96L24.064 34.5059C23.4998 35.524 23.5754 36.7765 24.258 37.7193L26.688 35.96ZM39.616 53.816H42.616C42.616 53.1842 42.4165 52.5685 42.046 52.0567L39.616 53.816ZM38.4 54.904L36.5411 52.5494C36.5038 52.5788 36.4673 52.609 36.4315 52.6402L38.4 54.904ZM31.488 58.936L32.5251 61.751L32.5314 61.7487L31.488 58.936ZM29.056 59.384L28.8069 62.3736C28.8897 62.3805 28.9728 62.384 29.056 62.384L29.056 59.384ZM27.52 59.256L26.7924 62.1664C26.9495 62.2057 27.1095 62.2322 27.2709 62.2456L27.52 59.256ZM24.32 56.632L21.6616 58.0222C21.6697 58.0377 21.6779 58.0532 21.6863 58.0686L24.32 56.632ZM17.024 42.68L19.6824 41.2898C19.165 40.3002 18.1407 39.68 17.024 39.68V42.68ZM16 42.68V39.68C14.3431 39.68 13 41.0231 13 42.68H16ZM13 58.104C13 57.3196 13.332 56.7065 13.6708 56.328C13.9667 55.9975 14.2528 55.8544 14.3286 55.8181C14.4704 55.7502 14.4335 55.796 14.0233 55.8615C13.263 55.9828 11.9523 56.064 9.984 56.064V62.064C12.0264 62.064 13.7237 61.9852 14.9687 61.7865C15.5612 61.692 16.2763 61.5378 16.9194 61.2299C17.4033 60.9982 19 60.1038 19 58.104H13ZM10.1445 56.0683L6.56048 55.8763L6.23952 61.8677L9.82352 62.0597L10.1445 56.0683ZM6.63924 55.8816C5.62236 55.8002 5.05585 55.7003 4.80889 55.6311C4.66451 55.5907 4.82612 55.6139 5.08693 55.7912C5.33307 55.9586 6.2 56.6535 6.2 57.976H0.2C0.2 59.5119 1.20026 60.4041 1.71307 60.7528C2.24054 61.1115 2.80215 61.3 3.19111 61.4089C4.01082 61.6384 5.04431 61.7731 6.16076 61.8624L6.63924 55.8816ZM6.2 57.976V15.032H0.2V57.976H6.2ZM6.2 15.032C6.2 16.5908 5.00363 17.2078 4.96298 17.2285C4.82352 17.2996 4.86871 17.2474 5.30279 17.1736C6.11202 17.036 7.50632 16.944 9.6 16.944V10.944C7.42701 10.944 5.62131 11.0333 4.29721 11.2584C3.66462 11.366 2.90981 11.5404 2.23702 11.8835C1.66303 12.1762 0.2 13.1105 0.2 15.032H6.2ZM9.6 16.944C11.6937 16.944 13.088 17.036 13.8972 17.1736C14.3313 17.2474 14.3765 17.2996 14.237 17.2285C14.1964 17.2078 13 16.5908 13 15.032H19C19 13.1105 17.537 12.1762 16.963 11.8835C16.2902 11.5404 15.5354 11.366 14.9028 11.2584C13.5787 11.0333 11.773 10.944 9.6 10.944V16.944ZM13 15.032V31.416H19V15.032H13ZM18.7082 32.7066L26.5162 16.3226L21.0998 13.7414L13.2918 30.1254L18.7082 32.7066ZM26.4913 16.3736C26.1108 17.1346 25.5249 17.3768 25.5198 17.379C25.4539 17.4085 25.5233 17.3686 25.8291 17.3151C26.4278 17.2103 27.4305 17.136 28.928 17.136V11.136C27.3109 11.136 25.9029 11.211 24.7949 11.4049C24.2474 11.5007 23.6395 11.6475 23.0722 11.901C22.5658 12.1272 21.6546 12.6307 21.1247 13.6904L26.4913 16.3736ZM28.928 17.136C31.7172 17.136 33.6884 17.2591 34.9377 17.4643C35.577 17.5694 35.8649 17.6711 35.9333 17.7018C36.1164 17.7838 35.3326 17.5151 35.018 16.4815L40.758 14.7345C40.2941 13.2102 39.0249 12.5122 38.3867 12.2262C37.6338 11.8889 36.7643 11.684 35.9103 11.5437C34.1729 11.2582 31.8135 11.136 28.928 11.136V17.136ZM34.888 15.608C34.888 15.175 35 14.8039 35.1407 14.5224L40.5073 17.2056C40.7334 16.7534 40.888 16.2116 40.888 15.608H34.888ZM35.2 14.4099L24.064 34.5059L29.312 37.4141L40.448 17.3181L35.2 14.4099ZM24.258 37.7193L37.186 55.5753L42.046 52.0567L29.118 34.2007L24.258 37.7193ZM36.616 53.816C36.616 53.2664 36.7686 52.8551 36.8475 52.6683C36.937 52.4564 37.0325 52.3011 37.0876 52.2169C37.1964 52.0509 37.2929 51.9441 37.3154 51.9193C37.3702 51.8586 37.3858 51.8499 37.3116 51.9163C37.1789 52.035 36.9327 52.2402 36.5411 52.5494L40.2589 57.2586C40.678 56.9278 41.0397 56.6317 41.3124 56.3877C41.4409 56.2728 41.6084 56.1174 41.7646 55.9447C41.8378 55.8639 41.9723 55.7098 42.1064 55.5051C42.1432 55.4489 42.616 54.7832 42.616 53.816H36.616ZM36.4315 52.6402C34.7639 54.0903 32.7798 55.257 30.4446 56.1233L32.5314 61.7487C35.4868 60.6523 38.1108 59.1311 40.3685 57.1678L36.4315 52.6402ZM30.4509 56.121C29.9503 56.3054 29.4901 56.384 29.056 56.384V62.384C30.2433 62.384 31.4043 62.1639 32.5251 61.751L30.4509 56.121ZM29.3051 56.3944L27.7691 56.2664L27.2709 62.2456L28.8069 62.3736L29.3051 56.3944ZM28.2476 56.3456C27.8129 56.2369 27.382 55.9806 26.9537 55.1954L21.6863 58.0686C22.794 60.0994 24.4964 61.5924 26.7924 62.1664L28.2476 56.3456ZM26.9785 55.2418L19.6824 41.2898L14.3656 44.0702L21.6616 58.0222L26.9785 55.2418ZM17.024 39.68H16V45.68H17.024V39.68ZM13 42.68V58.104H19V42.68H13Z" fill="black" fill-opacity="0.2"/>
</svg>
