<svg width="1422" height="635" viewBox="0 0 1422 635" fill="none" xmlns="http://www.w3.org/2000/svg">
<rect y="317.491" width="449" height="449" rx="27" transform="rotate(-45 0 317.491)" fill="#9FD6B5"/>
<rect x="787" y="317.491" width="449" height="449" rx="27" transform="rotate(-45 787 317.491)" fill="#9FD6B5"/>
<rect x="399" y="317.491" width="449" height="449" rx="27" transform="rotate(-45 399 317.491)" fill="#9FD6B5"/>
<path d="M415.592 336.181C405.048 325.637 405.048 308.541 415.592 297.997L497.276 216.313C507.82 205.769 524.916 205.769 535.46 216.313L617.497 298.35C628.041 308.894 628.041 325.99 617.497 336.534L535.813 418.218C525.269 428.762 508.173 428.762 497.629 418.218L415.592 336.181Z" fill="#D4DFD8"/>
<path d="M813.092 335.96C802.548 325.416 802.548 308.32 813.092 297.776L894.776 216.092C905.32 205.548 922.416 205.548 932.96 216.092L1015 298.129C1025.54 308.673 1025.54 325.769 1015 336.313L933.313 417.997C922.769 428.541 905.673 428.541 895.129 417.997L813.092 335.96Z" fill="#D4DFD8"/>
</svg>
