<svg width="47" height="47" viewBox="0 0 47 47" fill="none" xmlns="http://www.w3.org/2000/svg">
<path d="M0.264 47V0.983997H46.28V47H0.264ZM2.824 44.44H43.72V3.544H2.824V44.44ZM21.064 41.944V21.912C16.2 21.144 12.872 17.752 12.872 13.976C12.872 9.496 17.544 5.848 23.304 5.848C29.128 5.848 33.736 9.56 33.736 13.976C33.736 17.816 30.344 21.144 25.544 21.912V33.816H31.24V38.616H25.544V41.944H21.064ZM23.304 18.328C26.312 18.328 28.808 16.344 28.808 13.976C28.808 11.544 26.312 9.624 23.304 9.624C20.296 9.624 17.8 11.544 17.8 13.976C17.8 16.344 20.296 18.328 23.304 18.328Z" fill="#4B4B4B"/>
<path d="M0.264 47H-2.736C-2.736 48.6569 -1.39285 50 0.264 50L0.264 47ZM0.264 0.983997V-2.016C-1.39285 -2.016 -2.736 -0.672857 -2.736 0.983997H0.264ZM46.28 0.983997H49.28C49.28 -0.672857 47.9369 -2.016 46.28 -2.016V0.983997ZM46.28 47V50C47.9369 50 49.28 48.6569 49.28 47H46.28ZM2.824 44.44H-0.176C-0.176 46.0969 1.16715 47.44 2.824 47.44L2.824 44.44ZM43.72 44.44V47.44C45.3769 47.44 46.72 46.0969 46.72 44.44H43.72ZM43.72 3.544H46.72C46.72 1.88714 45.3769 0.543999 43.72 0.543999V3.544ZM2.824 3.544V0.543999C1.16715 0.543999 -0.176 1.88714 -0.176 3.544H2.824ZM21.064 41.944H18.064C18.064 43.6009 19.4071 44.944 21.064 44.944V41.944ZM21.064 21.912H24.064C24.064 20.4358 22.99 19.1789 21.5319 18.9487L21.064 21.912ZM25.544 21.912L25.07 18.9497C23.6147 19.1825 22.544 20.4381 22.544 21.912H25.544ZM25.544 33.816H22.544C22.544 35.4729 23.8871 36.816 25.544 36.816V33.816ZM31.24 33.816H34.24C34.24 32.1591 32.8969 30.816 31.24 30.816V33.816ZM31.24 38.616V41.616C32.8969 41.616 34.24 40.2729 34.24 38.616H31.24ZM25.544 38.616V35.616C23.8871 35.616 22.544 36.9591 22.544 38.616H25.544ZM25.544 41.944V44.944C27.2009 44.944 28.544 43.6009 28.544 41.944H25.544ZM3.264 47V0.983997H-2.736V47H3.264ZM0.264 3.984H46.28V-2.016H0.264V3.984ZM43.28 0.983997V47H49.28V0.983997H43.28ZM46.28 44H0.264V50H46.28V44ZM2.824 47.44H43.72V41.44H2.824V47.44ZM46.72 44.44V3.544H40.72V44.44H46.72ZM43.72 0.543999H2.824V6.544H43.72V0.543999ZM-0.176 3.544V44.44H5.824V3.544H-0.176ZM24.064 41.944V21.912H18.064V41.944H24.064ZM21.5319 18.9487C17.6532 18.3363 15.872 15.8433 15.872 13.976H9.872C9.872 19.6607 14.7468 23.9517 20.5961 24.8753L21.5319 18.9487ZM15.872 13.976C15.872 11.8051 18.4629 8.848 23.304 8.848V2.848C16.6251 2.848 9.872 7.18694 9.872 13.976H15.872ZM23.304 8.848C28.1795 8.848 30.736 11.8459 30.736 13.976H36.736C36.736 7.27409 30.0765 2.848 23.304 2.848V8.848ZM30.736 13.976C30.736 15.879 28.9249 18.3329 25.07 18.9497L26.018 24.8743C31.7631 23.9551 36.736 19.753 36.736 13.976H30.736ZM22.544 21.912V33.816H28.544V21.912H22.544ZM25.544 36.816H31.24V30.816H25.544V36.816ZM28.24 33.816V38.616H34.24V33.816H28.24ZM31.24 35.616H25.544V41.616H31.24V35.616ZM22.544 38.616V41.944H28.544V38.616H22.544ZM25.544 38.944H21.064V44.944H25.544V38.944ZM23.304 21.328C27.2789 21.328 31.808 18.6153 31.808 13.976H25.808C25.808 14.0499 25.7698 14.3331 25.3214 14.6882C24.8768 15.0404 24.1648 15.328 23.304 15.328V21.328ZM31.808 13.976C31.808 9.24821 27.2479 6.624 23.304 6.624V12.624C24.1889 12.624 24.9007 12.9099 25.333 13.2489C25.7568 13.5811 25.808 13.8559 25.808 13.976H31.808ZM23.304 6.624C19.3601 6.624 14.8 9.24821 14.8 13.976H20.8C20.8 13.8559 20.8512 13.5811 21.275 13.2489C21.7073 12.9099 22.4191 12.624 23.304 12.624V6.624ZM14.8 13.976C14.8 18.6153 19.3291 21.328 23.304 21.328V15.328C22.4432 15.328 21.7312 15.0404 21.2866 14.6882C20.8382 14.3331 20.8 14.0499 20.8 13.976H14.8Z" fill="white"/>
<path d="M0.264 47H-2.736C-2.736 48.6569 -1.39285 50 0.264 50L0.264 47ZM0.264 0.983997V-2.016C-1.39285 -2.016 -2.736 -0.672857 -2.736 0.983997H0.264ZM46.28 0.983997H49.28C49.28 -0.672857 47.9369 -2.016 46.28 -2.016V0.983997ZM46.28 47V50C47.9369 50 49.28 48.6569 49.28 47H46.28ZM2.824 44.44H-0.176C-0.176 46.0969 1.16715 47.44 2.824 47.44L2.824 44.44ZM43.72 44.44V47.44C45.3769 47.44 46.72 46.0969 46.72 44.44H43.72ZM43.72 3.544H46.72C46.72 1.88714 45.3769 0.543999 43.72 0.543999V3.544ZM2.824 3.544V0.543999C1.16715 0.543999 -0.176 1.88714 -0.176 3.544H2.824ZM21.064 41.944H18.064C18.064 43.6009 19.4071 44.944 21.064 44.944V41.944ZM21.064 21.912H24.064C24.064 20.4358 22.99 19.1789 21.5319 18.9487L21.064 21.912ZM25.544 21.912L25.07 18.9497C23.6147 19.1825 22.544 20.4381 22.544 21.912H25.544ZM25.544 33.816H22.544C22.544 35.4729 23.8871 36.816 25.544 36.816V33.816ZM31.24 33.816H34.24C34.24 32.1591 32.8969 30.816 31.24 30.816V33.816ZM31.24 38.616V41.616C32.8969 41.616 34.24 40.2729 34.24 38.616H31.24ZM25.544 38.616V35.616C23.8871 35.616 22.544 36.9591 22.544 38.616H25.544ZM25.544 41.944V44.944C27.2009 44.944 28.544 43.6009 28.544 41.944H25.544ZM3.264 47V0.983997H-2.736V47H3.264ZM0.264 3.984H46.28V-2.016H0.264V3.984ZM43.28 0.983997V47H49.28V0.983997H43.28ZM46.28 44H0.264V50H46.28V44ZM2.824 47.44H43.72V41.44H2.824V47.44ZM46.72 44.44V3.544H40.72V44.44H46.72ZM43.72 0.543999H2.824V6.544H43.72V0.543999ZM-0.176 3.544V44.44H5.824V3.544H-0.176ZM24.064 41.944V21.912H18.064V41.944H24.064ZM21.5319 18.9487C17.6532 18.3363 15.872 15.8433 15.872 13.976H9.872C9.872 19.6607 14.7468 23.9517 20.5961 24.8753L21.5319 18.9487ZM15.872 13.976C15.872 11.8051 18.4629 8.848 23.304 8.848V2.848C16.6251 2.848 9.872 7.18694 9.872 13.976H15.872ZM23.304 8.848C28.1795 8.848 30.736 11.8459 30.736 13.976H36.736C36.736 7.27409 30.0765 2.848 23.304 2.848V8.848ZM30.736 13.976C30.736 15.879 28.9249 18.3329 25.07 18.9497L26.018 24.8743C31.7631 23.9551 36.736 19.753 36.736 13.976H30.736ZM22.544 21.912V33.816H28.544V21.912H22.544ZM25.544 36.816H31.24V30.816H25.544V36.816ZM28.24 33.816V38.616H34.24V33.816H28.24ZM31.24 35.616H25.544V41.616H31.24V35.616ZM22.544 38.616V41.944H28.544V38.616H22.544ZM25.544 38.944H21.064V44.944H25.544V38.944ZM23.304 21.328C27.2789 21.328 31.808 18.6153 31.808 13.976H25.808C25.808 14.0499 25.7698 14.3331 25.3214 14.6882C24.8768 15.0404 24.1648 15.328 23.304 15.328V21.328ZM31.808 13.976C31.808 9.24821 27.2479 6.624 23.304 6.624V12.624C24.1889 12.624 24.9007 12.9099 25.333 13.2489C25.7568 13.5811 25.808 13.8559 25.808 13.976H31.808ZM23.304 6.624C19.3601 6.624 14.8 9.24821 14.8 13.976H20.8C20.8 13.8559 20.8512 13.5811 21.275 13.2489C21.7073 12.9099 22.4191 12.624 23.304 12.624V6.624ZM14.8 13.976C14.8 18.6153 19.3291 21.328 23.304 21.328V15.328C22.4432 15.328 21.7312 15.0404 21.2866 14.6882C20.8382 14.3331 20.8 14.0499 20.8 13.976H14.8Z" fill="black" fill-opacity="0.1"/>
</svg>
